<svg xmlns="http://www.w3.org/2000/svg" width="124.539" height="124.539">
<circle fill="#6fd1f2" cx="69.152" cy="13.686" r="13.686"/>
<path fill="#6fd1f2" d="M97.759 61.177c-2.95-20.117-7.313-29.555-17.372-36.598-2.849 2.938-6.829 4.772-11.234 4.772-4.489 0-8.532-1.909-11.391-4.945-3.723 3.123-6.575 7.375-9.132 11.226-2.936 4.421-5.972 8.993-8.745 9.228a5.31 5.31 0 0 0-.854.149 9.667 9.667 0 0 0-2.561-.353c-5.374 0-9.746 4.371-9.746 9.746a2.657 2.657 0 0 0 5.315 0c0-1.936 1.255-3.566 2.987-4.169.002.123.002.245.013.369a5.313 5.313 0 0 0 5.744 4.845c.04-.003.077-.012.116-.016v66.45a2.657 2.657 0 1 0 5.316 0v-67.48c0-.192-.018-.38-.029-.568 3.494-1.863 6.24-5.066 8.665-8.462v17.184c0 1.361.246 2.641.689 3.818-.986 4.342-4.824 21.553-5.023 27.359l-.273 7.902c-.567 16.33-.567 16.411-.567 16.625a6.279 6.279 0 1 0 12.557.109c.019-.7.332-9.707.561-16.301l.273-7.903c.1-2.927 1.908-12.104 3.547-19.707.738.104 1.487.17 2.243.17.961 0 1.914-.093 2.847-.26 1.643 7.616 3.465 16.858 3.565 19.797l.272 7.903c.229 6.594.543 15.601.562 16.301a6.28 6.28 0 0 0 12.557-.109c0-.214 0-.295-.567-16.625l-.273-7.902c-.206-6-4.294-24.164-5.11-27.746a6.773 6.773 0 0 0-.201-.686c.227-.871.355-1.787.355-2.748V44.254c1.7 4.243 3.149 10.074 4.379 18.465a5.315 5.315 0 0 0 10.515-1.542z"/></svg>