<svg xmlns="http://www.w3.org/2000/svg" width="124.541" height="124.54">
<circle fill="#ff69b4" cx="69.153" cy="13.686" r="13.686"/>
<path fill="#ff69b4" d="M97.759 61.177c-2.95-20.117-7.313-29.555-17.372-36.598-2.849 2.938-6.828 4.772-11.234 4.772-4.487 0-8.531-1.909-11.391-4.945-3.723 3.123-6.574 7.375-9.133 11.226-2.936 4.421-5.971 8.993-8.744 9.228a5.272 5.272 0 0 0-.854.149 9.669 9.669 0 0 0-2.562-.353c-5.373 0-9.745 4.371-9.745 9.746a2.657 2.657 0 0 0 5.315 0c0-1.936 1.255-3.566 2.987-4.169.003.123.003.245.013.369a5.313 5.313 0 0 0 5.744 4.845c.039-.003.076-.012.115-.016v66.45a2.657 2.657 0 1 0 5.316 0v-67.48c0-.192-.018-.38-.029-.568 3.494-1.863 6.24-5.066 8.664-8.462v4.732s-7.421 40.321-6.08 47.833c0 0 .574.153 1.587.389l-.114 3.312c-.566 16.329-.566 16.41-.566 16.625a6.279 6.279 0 0 0 12.557.108c.019-.7.331-9.707.56-16.3l.059-1.657c3.9.417 8.268.651 12.65.438l.041 1.219c.229 6.593.543 15.6.562 16.3a6.28 6.28 0 0 0 12.557-.108c0-.215 0-.296-.567-16.625l-.103-2.968a31.909 31.909 0 0 0 1.944-.731c.082-5.449-6.081-46.228-7.071-47.145v-6.54c1.699 4.243 3.148 10.074 4.379 18.464a5.318 5.318 0 0 0 5.252 4.545c.256 0 .517-.021.777-.059a5.311 5.311 0 0 0 4.486-6.026z"/></svg>